<svg width="24" height="25" viewBox="0 0 24 25" fill="none" xmlns="http://www.w3.org/2000/svg">
<g clip-path="url(#clip0_1807_1387)">
<path d="M12 2.35539C15.206 2.35539 15.5824 2.36968 16.8496 2.42685C18.0215 2.47925 18.655 2.67456 19.079 2.8413C19.6411 3.06043 20.0413 3.31768 20.4605 3.73689C20.8797 4.1561 21.1417 4.55626 21.3561 5.11839C21.5181 5.54237 21.7182 6.17595 21.7706 7.34785C21.8277 8.61502 21.842 8.99135 21.842 12.1974C21.842 15.4034 21.8277 15.7798 21.7706 17.0469C21.7182 18.2188 21.5228 18.8524 21.3561 19.2764C21.137 19.8385 20.8797 20.2387 20.4605 20.6579C20.0413 21.0771 19.6411 21.3391 19.079 21.5535C18.655 21.7155 18.0215 21.9155 16.8496 21.9679C15.5824 22.0251 15.206 22.0394 12 22.0394C8.79397 22.0394 8.41763 22.0251 7.15046 21.9679C5.97857 21.9155 5.34498 21.7202 4.921 21.5535C4.35888 21.3343 3.95872 21.0771 3.5395 20.6579C3.12029 20.2387 2.85828 19.8385 2.64391 19.2764C2.48194 18.8524 2.28186 18.2188 2.22946 17.0469C2.17229 15.7798 2.158 15.4034 2.158 12.1974C2.158 8.99135 2.17229 8.61502 2.22946 7.34785C2.28186 6.17595 2.47718 5.54237 2.64391 5.11839C2.86304 4.55626 3.12029 4.1561 3.5395 3.73689C3.95872 3.31768 4.35888 3.05567 4.921 2.8413C5.34498 2.67933 5.97857 2.47925 7.15046 2.42685C8.41763 2.36492 8.79874 2.35539 12 2.35539ZM12 0.192627C8.74157 0.192627 8.33188 0.206918 7.05042 0.264084C5.77372 0.321249 4.90195 0.526093 4.13974 0.821448C3.34895 1.12633 2.68202 1.54078 2.01509 2.20771C1.34816 2.87464 0.938468 3.54634 0.628821 4.33236C0.333466 5.09457 0.128623 5.96635 0.071457 7.24781C0.0142914 8.5245 0 8.93419 0 12.1926C0 15.4511 0.0142914 15.8607 0.071457 17.1422C0.128623 18.4189 0.333466 19.2907 0.628821 20.0577C0.933705 20.8484 1.34816 21.5154 2.01509 22.1823C2.68202 22.8492 3.35371 23.2589 4.13974 23.5686C4.90195 23.8639 5.77372 24.0688 7.05519 24.1259C8.33665 24.1831 8.74157 24.1974 12.0048 24.1974C15.268 24.1974 15.6729 24.1831 16.9544 24.1259C18.2311 24.0688 19.1028 23.8639 19.8698 23.5686C20.6606 23.2637 21.3275 22.8492 21.9945 22.1823C22.6614 21.5154 23.0711 20.8437 23.3807 20.0577C23.6761 19.2954 23.8809 18.4237 23.9381 17.1422C23.9953 15.8607 24.0095 15.4558 24.0095 12.1926C24.0095 8.92943 23.9953 8.5245 23.9381 7.24304C23.8809 5.96635 23.6761 5.09457 23.3807 4.3276C23.0758 3.53681 22.6614 2.86988 21.9945 2.20295C21.3275 1.53602 20.6558 1.12633 19.8698 0.816684C19.1076 0.521329 18.2358 0.316486 16.9544 0.25932C15.6681 0.206918 15.2584 0.192627 12 0.192627Z" fill="#5A5A5A"/>
<path d="M12 2.35539C15.206 2.35539 15.5824 2.36968 16.8496 2.42685C18.0215 2.47925 18.655 2.67456 19.079 2.8413C19.6411 3.06043 20.0413 3.31768 20.4605 3.73689C20.8797 4.1561 21.1417 4.55626 21.3561 5.11839C21.5181 5.54237 21.7182 6.17595 21.7706 7.34785C21.8277 8.61502 21.842 8.99135 21.842 12.1974C21.842 15.4034 21.8277 15.7798 21.7706 17.0469C21.7182 18.2188 21.5228 18.8524 21.3561 19.2764C21.137 19.8385 20.8797 20.2387 20.4605 20.6579C20.0413 21.0771 19.6411 21.3391 19.079 21.5535C18.655 21.7155 18.0215 21.9155 16.8496 21.9679C15.5824 22.0251 15.206 22.0394 12 22.0394C8.79397 22.0394 8.41763 22.0251 7.15046 21.9679C5.97857 21.9155 5.34498 21.7202 4.921 21.5535C4.35888 21.3343 3.95872 21.0771 3.5395 20.6579C3.12029 20.2387 2.85828 19.8385 2.64391 19.2764C2.48194 18.8524 2.28186 18.2188 2.22946 17.0469C2.17229 15.7798 2.158 15.4034 2.158 12.1974C2.158 8.99135 2.17229 8.61502 2.22946 7.34785C2.28186 6.17595 2.47718 5.54237 2.64391 5.11839C2.86304 4.55626 3.12029 4.1561 3.5395 3.73689C3.95872 3.31768 4.35888 3.05567 4.921 2.8413C5.34498 2.67933 5.97857 2.47925 7.15046 2.42685C8.41763 2.36492 8.79874 2.35539 12 2.35539Z" fill="#5A5A5A"/>
<path d="M12 6.03305C8.59863 6.03305 5.83563 8.79129 5.83563 12.1974C5.83563 15.6035 8.59387 18.3617 12 18.3617C15.4061 18.3617 18.1643 15.6035 18.1643 12.1974C18.1643 8.79129 15.4061 6.03305 12 6.03305ZM12 16.1942C9.78958 16.1942 7.99839 14.403 7.99839 12.1926C7.99839 9.98223 9.78958 8.19105 12 8.19105C14.2104 8.19105 16.0016 9.98223 16.0016 12.1926C16.0016 14.403 14.2104 16.1942 12 16.1942Z" fill="white"/>
<path d="M18.4073 7.22398C19.2018 7.22398 19.846 6.57987 19.846 5.78532C19.846 4.99076 19.2018 4.34665 18.4073 4.34665C17.6127 4.34665 16.9686 4.99076 16.9686 5.78532C16.9686 6.57987 17.6127 7.22398 18.4073 7.22398Z" fill="white"/>
</g>
<defs>
<clipPath id="clip0_1807_1387">
<rect width="24" height="24" fill="white" transform="translate(0 0.192627)"/>
</clipPath>
</defs>
</svg>
