<svg width="24" height="24" viewBox="0 0 24 24" fill="none" xmlns="http://www.w3.org/2000/svg">
<path d="M2.39999 3.60002C2.39999 2.93728 2.93725 2.40002 3.59999 2.40002H6.18344C6.77005 2.40002 7.27068 2.82412 7.36711 3.40275L8.25429 8.72579C8.3409 9.24543 8.07846 9.76079 7.60727 9.99639L5.74951 10.9253C7.08906 14.254 9.74601 16.911 13.0747 18.2505L14.0036 16.3927C14.2392 15.9216 14.7546 15.6591 15.2742 15.7457L20.5973 16.6329C21.1759 16.7293 21.6 17.23 21.6 17.8166V20.4C21.6 21.0628 21.0627 21.6 20.4 21.6H18C9.38435 21.6 2.39999 14.6157 2.39999 6.00002V3.60002Z" fill="#5A5A5A"/>
</svg>
