<svg width="24" height="25" viewBox="0 0 24 25" fill="none" xmlns="http://www.w3.org/2000/svg">
<path d="M23.5057 6.42195C23.2289 5.39394 22.4184 4.5834 21.3904 4.30663C19.5123 3.79263 11.9999 3.79263 11.9999 3.79263C11.9999 3.79263 4.48762 3.79263 2.60954 4.28686C1.60131 4.56363 0.771002 5.39394 0.494232 6.42195C0 8.30003 0 12.1946 0 12.1946C0 12.1946 0 16.1089 0.494232 17.9672C0.771002 18.9952 1.58154 19.8057 2.60954 20.0825C4.50739 20.5965 11.9999 20.5965 11.9999 20.5965C11.9999 20.5965 19.5123 20.5965 21.3904 20.1023C22.4184 19.8255 23.2289 19.015 23.5057 17.987C23.9999 16.1089 23.9999 12.2143 23.9999 12.2143C23.9999 12.2143 24.0197 8.30003 23.5057 6.42195Z" fill="#5A5A5A"/>
<path d="M9.60788 15.7926L15.855 12.1946L9.60788 8.59656V15.7926Z" fill="white"/>
</svg>
