<svg width="140" height="40" viewBox="0 0 140 40" fill="none" xmlns="http://www.w3.org/2000/svg">
<g clip-path="url(#clip0_1907_214)">
<path d="M6.76831 26.7326C5.8832 26.7478 5.00392 26.5867 4.18176 26.2585C3.3596 25.9304 2.61102 25.4418 1.9797 24.8212C1.34837 24.2007 0.84694 23.4606 0.504655 22.6442C0.162369 21.8279 -0.013916 20.9515 -0.013916 20.0663C-0.013916 19.181 0.162369 18.3046 0.504655 17.4883C0.84694 16.6719 1.34837 15.9318 1.9797 15.3113C2.61102 14.6908 3.3596 14.2021 4.18176 13.874C5.00392 13.5458 5.8832 13.3847 6.76831 13.3999H20.1168C21.8851 13.3999 23.581 14.1024 24.8313 15.3527C26.0817 16.6031 26.7841 18.299 26.7841 20.0672V33.4019C26.754 35.1505 26.0382 36.8174 24.7909 38.0433C23.5437 39.2693 21.8647 39.9563 20.1158 39.9563C18.3669 39.9563 16.688 39.2693 15.4407 38.0433C14.1935 36.8174 13.4777 35.1505 13.4475 33.4019C13.448 32.5261 13.2759 31.6588 12.9411 30.8495C12.6062 30.0402 12.1152 29.3049 11.496 28.6855C10.8768 28.0661 10.1416 27.5749 9.33243 27.2398C8.52327 26.9047 7.65599 26.7323 6.78019 26.7326H6.76831Z" fill="#00DE9C"/>
<path d="M33.4178 26.7328C35.1861 26.7328 36.882 26.0303 38.1323 24.7799C39.3827 23.5296 40.0852 21.8337 40.0852 20.0654C40.0852 18.2971 39.3827 16.6013 38.1323 15.3509C36.882 14.1006 35.1861 13.3981 33.4178 13.3981H33.4396C32.5641 13.3984 31.6972 13.2262 30.8883 12.8913C30.0794 12.5565 29.3444 12.0655 28.7252 11.4466C28.1061 10.8276 27.6149 10.0927 27.2798 9.28393C26.9448 8.47513 26.7723 7.60823 26.7723 6.73276C26.7723 4.96447 26.0698 3.26861 24.8195 2.01824C23.5691 0.767877 21.8732 0.0654297 20.105 0.0654297C18.3367 0.0654297 16.6408 0.767877 15.3904 2.01824C14.1401 3.26861 13.4376 4.96447 13.4376 6.73276V15.9407C13.4376 16.4818 13.5442 17.0177 13.7513 17.5176C13.9584 18.0176 14.2619 18.4719 14.6446 18.8545C15.0272 19.2372 15.4815 19.5407 15.9815 19.7478C16.4814 19.9549 17.0173 20.0615 17.5584 20.0615H18.0337C18.3041 20.0615 18.5719 20.1147 18.8218 20.2182C19.0716 20.3217 19.2986 20.4734 19.4899 20.6647C19.6811 20.8559 19.8328 21.0829 19.9363 21.3328C20.0398 21.5826 20.0931 21.8504 20.0931 22.1209V22.604C20.092 23.1455 20.1977 23.6819 20.4041 24.1825C20.6105 24.6831 20.9135 25.1382 21.2958 25.5216C21.6782 25.905 22.1323 26.2094 22.6323 26.4172C23.1323 26.625 23.6684 26.7322 24.2099 26.7328H33.4178Z" fill="#049CFB"/>
<path d="M26.7842 20.0733C26.7842 18.305 26.0817 16.6092 24.8313 15.3588C23.581 14.1085 21.8851 13.406 20.1168 13.406H13.4376V15.9506C13.4376 17.0435 13.8718 18.0916 14.6446 18.8644C15.4174 19.6372 16.4655 20.0714 17.5584 20.0714H18.0337C18.3041 20.0714 18.5719 20.1246 18.8218 20.2281C19.0716 20.3316 19.2986 20.4833 19.4899 20.6745C19.6811 20.8658 19.8328 21.0928 19.9363 21.3427C20.0398 21.5925 20.0931 21.8603 20.0931 22.1308V22.6139C20.0936 23.7058 20.5274 24.7528 21.2993 25.5251C22.0712 26.2973 23.118 26.7317 24.2099 26.7327H26.7842V20.0733Z" fill="#5449D6"/>
<path d="M46.7525 13.41C45.8686 13.41 45.0209 13.0589 44.3959 12.4339C43.7709 11.8089 43.4198 10.9612 43.4198 10.0773C43.4198 9.19342 43.7709 8.34574 44.3959 7.72075C45.0209 7.09575 45.8686 6.74463 46.7525 6.74463H66.7525C67.6363 6.74463 68.484 7.09575 69.109 7.72075C69.734 8.34574 70.0851 9.19342 70.0851 10.0773C70.0851 10.9612 69.734 11.8089 69.109 12.4339C68.484 13.0589 67.6363 13.41 66.7525 13.41H60.9485C60.7277 13.4105 60.5162 13.4986 60.3603 13.6548C60.2044 13.8111 60.1168 14.0229 60.1168 14.2436V29.9961C60.1277 30.4407 60.0494 30.883 59.8868 31.297C59.7241 31.7109 59.4803 32.0881 59.1697 32.4064C58.859 32.7247 58.4879 32.9777 58.078 33.1504C57.6682 33.3231 57.2279 33.412 56.7832 33.412C56.3384 33.412 55.8981 33.3231 55.4883 33.1504C55.0784 32.9777 54.7073 32.7247 54.3966 32.4064C54.086 32.0881 53.8422 31.7109 53.6795 31.297C53.5169 30.883 53.4387 30.4407 53.4495 29.9961C53.4495 29.7209 53.4495 14.2436 53.4495 14.2436C53.4495 14.1342 53.4279 14.0258 53.386 13.9246C53.3441 13.8235 53.2827 13.7316 53.2053 13.6541C53.1279 13.5767 53.036 13.5153 52.9349 13.4734C52.8337 13.4315 52.7253 13.41 52.6158 13.41H46.7525Z" fill="#00DE9C"/>
<path d="M73.4119 30.0773C73.4119 30.5149 73.4981 30.9481 73.6656 31.3524C73.8331 31.7566 74.0786 32.1239 74.3881 32.4332C74.6976 32.7425 75.065 32.9878 75.4694 33.155C75.8737 33.3223 76.307 33.4083 76.7446 33.408H90.0575C90.927 33.3868 91.7538 33.0265 92.3613 32.404C92.9688 31.7815 93.3089 30.9461 93.3089 30.0763C93.3089 29.2065 92.9688 28.3712 92.3613 27.7487C91.7538 27.1262 90.927 26.7658 90.0575 26.7446H80.8832C80.6626 26.7446 80.4511 26.657 80.2951 26.501C80.1391 26.3451 80.0515 26.1335 80.0515 25.913V10.0714C80.0623 9.62702 79.9842 9.18498 79.8216 8.77129C79.6591 8.35759 79.4154 7.98059 79.1049 7.66248C78.7945 7.34438 78.4235 7.09158 78.0139 6.91898C77.6043 6.74639 77.1643 6.65747 76.7198 6.65747C76.2753 6.65747 75.8353 6.74639 75.4257 6.91898C75.0161 7.09158 74.6452 7.34438 74.3347 7.66248C74.0243 7.98059 73.7806 8.35759 73.618 8.77129C73.4555 9.18498 73.3773 9.62702 73.3881 10.0714L73.4119 30.0773Z" fill="#00DE9C"/>
<path d="M113.412 13.4219C112.871 13.4216 112.339 13.5531 111.861 13.805C111.382 14.0569 110.973 14.4216 110.667 14.8674C109.261 13.9256 107.607 13.4219 105.915 13.4199C100.855 13.4199 96.7545 17.8952 96.7545 23.414C96.7545 28.9328 100.855 33.408 105.915 33.408C107.607 33.4061 109.261 32.9023 110.667 31.9605C111.07 32.5468 111.649 32.989 112.32 33.2224C112.992 33.4558 113.721 33.4682 114.4 33.2578C115.079 33.0474 115.673 32.6251 116.095 32.0529C116.517 31.4806 116.744 30.7883 116.745 30.0773V16.7526C116.744 15.8691 116.393 15.0219 115.768 14.3973C115.143 13.7727 114.295 13.4219 113.412 13.4219ZM106.749 26.7486C106.089 26.749 105.445 26.5541 104.897 26.1884C104.348 25.8228 103.92 25.3028 103.667 24.6942C103.414 24.0856 103.347 23.4157 103.475 22.769C103.602 22.1223 103.919 21.5279 104.384 21.0609C104.849 20.5939 105.442 20.2752 106.088 20.145C106.734 20.0148 107.404 20.0791 108.014 20.3296C108.624 20.5801 109.145 21.0057 109.513 21.5525C109.881 22.0994 110.079 22.743 110.081 23.4021V23.4259C110.079 24.308 109.726 25.1532 109.102 25.776C108.477 26.3989 107.631 26.7486 106.749 26.7486Z" fill="#00DE9C"/>
<path d="M130.903 13.4198C129.447 13.4194 128.015 13.7923 126.745 14.5029V10.099C126.755 9.6546 126.677 9.21257 126.515 8.79887C126.352 8.38518 126.108 8.00818 125.798 7.69007C125.488 7.37196 125.117 7.11917 124.707 6.94657C124.297 6.77397 123.857 6.68506 123.413 6.68506C122.968 6.68506 122.528 6.77397 122.119 6.94657C121.709 7.11917 121.338 7.37196 121.028 7.69007C120.717 8.00818 120.474 8.38518 120.311 8.79887C120.149 9.21257 120.07 9.6546 120.081 10.099V30.0772C120.081 30.7874 120.308 31.479 120.729 32.0511C121.15 32.6232 121.742 33.0458 122.42 33.2572C123.098 33.4686 123.826 33.4577 124.498 33.2262C125.169 32.9947 125.749 32.5546 126.152 31.9702C127.557 32.906 129.207 33.4062 130.895 33.4079C135.96 33.4079 140.067 28.9326 140.067 23.4138C140.067 17.895 135.968 13.4198 130.903 13.4198ZM130.081 26.7485C129.214 26.7483 128.381 26.4097 127.759 25.8047C127.137 25.1997 126.776 24.376 126.752 23.5089V23.3108C126.772 22.6566 126.984 22.0226 127.361 21.488C127.739 20.9534 128.266 20.5419 128.876 20.305C129.486 20.0681 130.153 20.0162 130.792 20.1558C131.432 20.2955 132.016 20.6204 132.472 21.0901C132.928 21.5599 133.235 22.1535 133.356 22.7968C133.476 23.4402 133.404 24.1048 133.149 24.7076C132.894 25.3105 132.467 25.8248 131.921 26.1863C131.376 26.5479 130.736 26.7406 130.081 26.7405V26.7485Z" fill="#00DE9C"/>
</g>
<defs>
<clipPath id="clip0_1907_214">
<rect width="140" height="40" fill="white"/>
</clipPath>
</defs>
</svg>
